<?xml version="1.0" encoding="UTF-8"?>
<svg width="53px" height="86px" viewBox="0 0 53 86" version="1.1" xmlns="http://www.w3.org/2000/svg" xmlns:xlink="http://www.w3.org/1999/xlink">
    <!-- Generator: Sketch 52.6 (67491) - http://www.bohemiancoding.com/sketch -->
    <title>1</title>
    <desc>Created with Sketch.</desc>
    <defs>
        <path d="M44.7,75.7 C44.7,76.233336 43.833342,76.5 42.1,76.5 L39.7,76.5 C38.766662,76.366666 35.100032,76.333333 28.7,76.4 L16.2,76.5 C15.399996,76.5 14.466672,76.533333 13.4,76.6 L11.8,76.6 C10.133325,76.6 9.3,76.300003 9.3,75.7 C9.3,75.299998 9.466665,75.066667 9.8,75 C10.133335,74.933333 11.433322,74.9 13.7,74.9 C16.633348,74.833333 18.43333,74.46667 19.1,73.8 C19.500002,73.199997 19.7,72.300006 19.7,71.1 L19.7,33.9 C19.7,25.966627 19.633334,21.66667 19.5,21 C19.299999,19.933328 18.366675,19.4 16.7,19.4 L11.6,19.5 C9.866658,19.566667 9,19.300003 9,18.7 C9,18.299998 10.099989,18.000001 12.3,17.8 C17.966695,17.333331 22.79998,15.933345 26.8,13.6 C27.000001,13.466666 28.199989,12.700007 30.4,11.3 L34.2,9 L34.6,10.5 C34.6,10.700001 34.566667,11.233329 34.5,12.1 L34.5,60.6 C34.5,66.666697 34.566666,70.099996 34.7,70.9 C34.766667,73.56668 36.066654,74.866667 38.6,74.8 C42.666687,74.666666 44.7,74.966663 44.7,75.7 Z" id="path-1"></path>
        <filter x="-42.0%" y="-22.2%" width="183.8%" height="144.4%" filterUnits="objectBoundingBox" id="filter-2">
            <feOffset dx="0" dy="0" in="SourceAlpha" result="shadowOffsetOuter1"></feOffset>
            <feGaussianBlur stdDeviation="5" in="shadowOffsetOuter1" result="shadowBlurOuter1"></feGaussianBlur>
            <feColorMatrix values="0 0 0 0 0   0 0 0 0 0   0 0 0 0 0  0 0 0 0.5 0" type="matrix" in="shadowBlurOuter1"></feColorMatrix>
        </filter>
    </defs>
    <g id="Welcome" stroke="none" stroke-width="1" fill="none" fill-rule="evenodd">
        <g id="1">
            <use fill="black" fill-opacity="1" filter="url(#filter-2)" xlink:href="#path-1"></use>
            <use fill="#FFFFFF" fill-rule="evenodd" xlink:href="#path-1"></use>
        </g>
    </g>
</svg>