<?xml version="1.0" encoding="UTF-8"?>
<svg width="72px" height="86px" viewBox="0 0 72 86" version="1.1" xmlns="http://www.w3.org/2000/svg" xmlns:xlink="http://www.w3.org/1999/xlink">
    <!-- Generator: Sketch 52.6 (67491) - http://www.bohemiancoding.com/sketch -->
    <title>4</title>
    <desc>Created with Sketch.</desc>
    <defs>
        <path d="M61.9,68.2 C61.9,68.933337 61.666669,69.3 61.2,69.3 C60.666664,69.3 60.333334,69.0500025 60.2,68.55 C60.066666,68.0499975 59.933334,66.666678 59.8,64.4 C59.733333,62.733325 59.500002,61.6500025 59.1,61.15 C58.699998,60.6499975 57.83334,60.300001 56.5,60.1 L50.6,60 L50.6,70 C50.6,72.066677 50.93333,73.2833315 51.6,73.65 C52.26667,74.0166685 54.499981,74.233333 58.3,74.3 C59.900008,74.3 60.7,74.599997 60.7,75.2 C60.7,75.666669 59.03335,75.9 55.7,75.9 C42.966603,75.9 34.666686,75.966666 30.8,76.1 C28.866657,76.166667 27.533337,76.2 26.8,76.2 C25.599994,76.2 25,75.933336 25,75.4 C25,74.73333 25.99999,74.4 28,74.4 C32.200021,74.4 34.5499975,74.100003 35.05,73.5 C35.5500025,72.899997 35.8,71.800008 35.8,70.2 L35.8,60.3 L25.9,60.3 C17.699959,60.3 12.766675,60.233334 11.1,60.1 C9.699993,60.033333 9,59.733336 9,59.2 C9,58.666664 9.466662,57.800006 10.4,56.6 C11.73334,54.933325 15.033307,50.7167005 20.3,43.95 C25.566693,37.1832995 32.53329,28.633385 41.2,18.3 C41.266667,18.166666 43.099982,15.933355 46.7,11.6 C48.100007,9.866658 49.066664,9 49.6,9 C50.200003,9 50.5,9.799992 50.5,11.4 L50.6,57.5 C54.666687,57.433333 57.233328,57.233335 58.3,56.9 C58.96667,56.566665 59.3499995,56.1500025 59.45,55.65 C59.5500005,55.1499975 59.6,53.7166785 59.6,51.35 C59.6,48.9833215 59.93333,47.8 60.6,47.8 C61.066669,47.8 61.333333,48.2499955 61.4,49.15 C61.466667,50.0500045 61.533333,53.099974 61.6,58.3 C61.6,62.96669 61.6499995,65.6166635 61.75,66.25 C61.8500005,66.8833365 61.9,67.53333 61.9,68.2 Z M36.8,27.9 C35.066658,29.700009 32.233353,33.199974 28.3,38.4 C26.699992,40.466677 24.433348,43.366648 21.5,47.1 C17.899982,51.633356 15.300008,54.999989 13.7,57.2 C17.966688,57.466668 23.033304,57.6 28.9,57.6 L35.9,57.6 C36.100001,44.93327 36.399998,35.033369 36.8,27.9 Z" id="path-1"></path>
        <filter x="-27.8%" y="-22.3%" width="156.1%" height="144.6%" filterUnits="objectBoundingBox" id="filter-2">
            <feOffset dx="0" dy="0" in="SourceAlpha" result="shadowOffsetOuter1"></feOffset>
            <feGaussianBlur stdDeviation="5" in="shadowOffsetOuter1" result="shadowBlurOuter1"></feGaussianBlur>
            <feColorMatrix values="0 0 0 0 0   0 0 0 0 0   0 0 0 0 0  0 0 0 0.5 0" type="matrix" in="shadowBlurOuter1"></feColorMatrix>
        </filter>
    </defs>
    <g id="Welcome" stroke="none" stroke-width="1" fill="none" fill-rule="evenodd">
        <g id="4">
            <use fill="black" fill-opacity="1" filter="url(#filter-2)" xlink:href="#path-1"></use>
            <use fill="#FFFFFF" fill-rule="evenodd" xlink:href="#path-1"></use>
        </g>
    </g>
</svg>