<?xml version="1.0" encoding="UTF-8" standalone="no"?>
<!DOCTYPE svg PUBLIC "-//W3C//DTD SVG 1.1//EN" "http://www.w3.org/Graphics/SVG/1.1/DTD/svg11.dtd">
<svg version="1.1" xmlns="http://www.w3.org/2000/svg" xmlns:xlink="http://www.w3.org/1999/xlink" preserveAspectRatio="xMidYMid meet" viewBox="0 0 800 193" width="800" height="193"><defs><path d="M190.49 158.35C190.96 158.2 191.28 157.78 191.29 157.29C191.29 141.75 191.29 17.38 191.29 1.84C191.29 1.22 190.79 0.72 190.17 0.72C171.26 0.72 20.02 0.72 1.12 0.72C0.5 0.72 0 1.22 0 1.84C0 17.09 0 139.06 0 154.31C-0.01 154.85 0.37 155.32 0.89 155.43C10.03 157.06 86.26 170.74 102.62 173.9C112.61 175.82 133.29 179.78 138.88 191.66C139.18 192.2 139.86 192.39 140.4 192.09C140.65 191.95 140.84 191.72 140.92 191.45C142.33 185.43 146.5 175.75 158.51 169.52C167.39 164.91 186.38 159.46 190.49 158.35Z" id="d1Umkk2lZz"></path><path d="M116.87 138.78C147.5 138.78 169.53 114.06 173.29 80.21C177.56 41.77 146.46 18.49 114.18 18.49C66.7 18.49 29.48 18.44 22.05 18.43C21.48 18.43 21.02 18.89 21.02 19.45C21.02 19.54 21.03 19.64 21.05 19.72C22.44 24.71 27.57 42.64 31.97 51.19C41.11 68.91 57.63 69.47 58.84 69.47C41.46 69.47 38.42 95.8 36.28 107.08C33.72 120.49 25.57 165.14 20.88 190.92C20.69 191.86 21.3 192.77 22.23 192.96C22.35 192.99 22.47 193 22.59 193C28.02 193 71.43 193 76.86 193C77.71 193.01 78.44 192.39 78.58 191.55C79.46 186.36 86.52 144.86 87.4 139.68C87.47 139.17 87.9 138.78 88.42 138.78C94.11 138.78 114.02 138.78 116.87 138.78Z" id="gZ32YWNbk"></path><path d="M129.92 81.95L132.29 67.79C137.61 67.79 140.57 67.79 141.16 67.79C141.5 67.8 141.79 67.56 141.84 67.22C142.14 65.47 144.54 51.41 144.84 49.65C144.93 49.28 144.71 48.9 144.33 48.81C144.29 48.8 144.25 48.79 144.21 48.79C143.63 48.79 140.72 48.79 135.49 48.79C136.7 41.33 137.37 37.18 137.5 36.35C137.6 35.79 137.23 35.26 136.67 35.16C136.61 35.15 136.55 35.14 136.49 35.14C134.78 35.14 121.1 35.14 119.39 35.14C118.88 35.14 118.45 35.51 118.37 36.01C118.23 36.86 117.52 41.12 116.26 48.79L101.85 48.79C103.12 41.3 103.83 37.14 103.97 36.3C104.06 35.74 103.68 35.21 103.12 35.12C103.06 35.11 103 35.11 102.94 35.11C101.23 35.11 87.55 35.11 85.84 35.11C85.34 35.11 84.91 35.47 84.83 35.97C84.68 36.82 83.96 41.1 82.66 48.79C72.15 48.79 66.31 48.79 65.14 48.79C64.76 48.79 64.46 49.1 64.46 49.47C64.46 49.48 64.46 49.48 64.46 49.48C64.46 49.48 64.46 49.48 64.46 49.48C64.46 58.34 70.83 65.92 79.55 67.45C79.39 68.42 78.59 73.25 77.14 81.95C69.94 81.95 65.94 81.95 65.14 81.95C64.76 81.95 64.46 82.25 64.46 82.63C64.46 82.63 64.46 82.64 64.46 82.64C64.46 82.64 64.46 82.64 64.46 82.64C64.46 89.46 68.26 95.71 74.32 98.84C74.08 100.29 72.15 111.92 71.9 113.37C71.82 113.95 72.21 114.48 72.79 114.57C72.84 114.58 72.88 114.58 72.93 114.58C74.64 114.58 88.32 114.58 90.03 114.58C90.53 114.59 90.97 114.22 91.04 113.72C91.19 112.87 91.9 108.6 93.18 100.91L107.58 100.91C106.33 108.4 105.64 112.56 105.5 113.4C105.41 113.96 105.79 114.5 106.36 114.59C106.41 114.6 106.46 114.6 106.52 114.6C108.22 114.6 121.9 114.6 123.61 114.6C124.12 114.61 124.55 114.24 124.64 113.74C124.78 112.89 125.49 108.6 126.77 100.9C135.4 100.9 140.2 100.9 141.16 100.9C141.49 100.9 141.78 100.66 141.84 100.33C142.14 98.57 144.54 84.51 144.84 82.75C144.91 82.38 144.66 82.03 144.29 81.96C144.26 81.95 144.24 81.95 144.21 81.95C142.31 81.95 137.54 81.95 129.92 81.95ZM98.7 67.79L113.1 67.79L110.73 81.95L96.38 81.95L98.7 67.79Z" id="eHwgm70GJ"></path><path d="M252.58 138.57C251.73 138.02 244.9 133.66 244.05 133.11C248.2 126.02 251.18 118.31 252.87 110.28C253.49 110.41 256.6 111.08 262.2 112.29C258.75 124.31 255.55 133.07 252.58 138.57ZM245.94 79.57C251.98 79.57 255.33 79.57 256 79.57C254.91 76.41 253.55 73.36 251.93 70.44C252.84 70.1 260.05 67.32 260.96 66.98C262.62 71.09 264.05 75.29 265.23 79.57C266.1 79.57 273.07 79.57 273.95 79.57C275.34 75.51 276.63 71.34 277.72 66.98C278.65 67.31 286.02 69.93 286.94 70.25C285.93 73.44 284.71 76.55 283.27 79.56C283.92 79.56 287.16 79.56 292.98 79.56L292.98 89.03L274.78 89.03L274.78 97.06L291.35 97.06L291.35 106.48L274.78 106.48L274.78 141.69L264.48 141.69L264.48 106.44L247.52 106.44L247.52 97.02L264.48 97.02L264.48 89.03L245.94 89.03L245.94 79.57ZM260.22 50.22C261.29 50.04 269.84 48.61 270.91 48.43C272.11 51.01 273.15 53.89 274.39 57.06C275.59 57.06 281.61 57.06 292.43 57.06L292.43 66.57L246.92 66.57L246.92 57.06L264.07 57.06C262.47 53.96 261.18 51.68 260.22 50.22ZM282.28 130.02C280.78 123.9 278.92 117.87 276.69 111.97C277.55 111.75 284.37 109.96 285.22 109.74C287.4 115.28 289.27 120.93 290.85 126.66C290.85 126.66 290.87 126.66 290.9 126.66C285.73 128.68 282.86 129.79 282.28 130.02ZM306.97 64.5C306.97 65.52 306.97 70.65 306.97 79.87L336.92 79.87L336.92 89.68L327.79 89.68L327.79 141.34L317.49 141.34L317.49 89.68L306.88 89.68C306.88 95.28 306.88 98.39 306.88 99.01C306.39 116.66 302.52 130.63 295.19 141.14C294.44 140.36 288.48 134.1 287.74 133.32C293.4 125.08 296.47 113.67 296.86 99.01C296.86 94.71 296.86 60.36 296.86 56.07C308.06 56.03 319.16 54.05 329.68 50.22C330.03 50.84 331.75 53.91 334.84 59.44C322.57 62.5 313.28 64.18 306.97 64.5Z" id="ch1KZoBHf"></path><path d="M375.36 82.94L375.36 141.14L365.05 141.14L365.05 52.5L404.52 52.5L404.52 82.94L375.36 82.94ZM375.4 60.04L375.4 64.01L394.4 64.01L394.4 60.04L375.4 60.04ZM394.4 75.41L394.4 70.94L375.4 70.94L375.4 75.41L394.4 75.41ZM381.85 87.3L432.15 87.3L432.15 96.03L425.61 96.03L425.61 121.51L433.54 121.51L433.54 130.24L425.61 130.24L425.61 139.46L416.49 139.46L416.49 130.24L380.92 130.24L380.92 121.51L388.15 121.51L388.15 96.03L381.85 96.03L381.85 87.3ZM397.31 100.09L416.55 100.09L416.55 96.03L397.31 96.03L397.31 100.09ZM416.55 106.92L397.27 106.92L397.27 110.89L416.55 110.9L416.55 106.92ZM416.55 117.74L397.27 117.74L397.27 121.51L416.55 121.51L416.55 117.74ZM411.49 52.5L450.52 52.5C450.52 99.86 450.52 126.17 450.52 131.43C450.52 137.78 447.16 140.95 440.46 140.95C437.28 140.95 434.12 140.75 431.04 140.55C430.81 139.63 428.9 132.25 428.66 131.33C431.36 131.71 434.07 131.91 436.79 131.93C438.97 131.93 440.14 130.63 440.14 128.25C440.14 125.24 440.14 110.17 440.14 83.04L411.49 83.04L411.49 52.5ZM421.57 60.24L421.57 64L440.21 64L440.25 60.24L421.57 60.24ZM440.21 75.51L440.21 70.95L421.57 70.95L421.57 75.51L440.21 75.51Z" id="m1wmyE0IDj"></path><path d="M551.03 76.44L565.81 76.44L565.81 84.56L550.24 84.56L549.46 93.19L493 93.29L494.27 84.66L480.3 84.66L480.3 76.54L495.47 76.54L496.68 67.8L551.81 67.72L551.03 76.44ZM553.5 129.19C547.79 129.19 544.61 129.19 543.98 129.19C550.53 130.35 557.02 131.84 563.43 133.66C563.1 134.49 560.49 141.08 560.16 141.9C550.42 138.32 540.4 135.55 530.2 133.62C530.36 133.32 531.15 131.83 532.57 129.15L512.74 129.15C514.65 131.7 515.72 133.12 515.93 133.4C508.99 136.88 498.98 139.78 486 142.08C485.53 141.28 481.8 134.86 481.33 134.05C489.43 133.06 497.44 131.46 505.3 129.28C504.46 129.28 500.26 129.28 492.71 129.28L492.65 96.56L553.45 96.47L553.5 129.19ZM554.83 73.54L554.83 64.14L491.17 64.24L491.17 73.66L481.44 73.66L481.44 56.12C503.21 56.08 515.31 56.06 517.73 56.06C517 54.26 516.17 52.51 515.24 50.81C516.29 50.63 524.61 49.18 525.65 49C526.55 51.08 527.44 53.47 528.34 56.05C530.75 56.04 542.82 56.02 564.54 55.99L564.54 73.54L554.83 73.54ZM543.74 102.35L502.38 102.42L502.38 105.77L543.74 105.7L543.74 102.35ZM543.74 110.96L502.38 111.02L502.38 114.3L543.74 114.23L543.74 110.96ZM502.38 119.65L502.38 123.01L543.74 122.94L543.74 119.59L502.38 119.65ZM517.83 83.53L503.65 83.53L502.96 87.4L517.24 87.4L517.83 83.53ZM519.4 73.82L505.42 73.82L504.73 77.86L518.71 77.79L519.4 73.82ZM540.65 87.39L541.13 83.52L526.85 83.52L526.26 87.39L540.65 87.39ZM541.82 77.77L542.21 73.8L528.43 73.8L527.73 77.77L541.82 77.77Z" id="i4yvye13x"></path><path d="M598.36 136.04C597.78 135.87 593.08 134.45 592.49 134.28C593.94 125.4 594.79 116.44 595.03 107.45C595.4 107.49 597.22 107.71 600.5 108.1C599.91 120.55 599.19 129.87 598.36 136.04ZM628.99 134.52C627.22 138.3 623.65 140.18 618.5 140.19C617.01 140.19 615.42 140.09 613.83 140C613.63 139.17 612.03 132.51 611.83 131.67C613.54 131.97 615.27 132.13 617 132.15C620.56 132.15 622.59 130.26 623.14 126.56C623.24 125.67 623.33 124.58 623.53 123.39C623.12 123.55 619.86 124.83 619.46 124.99C618.56 119.04 617.46 113.18 616.26 107.54C616.72 107.41 620.37 106.37 620.82 106.24C622.02 111.39 622.91 116.16 623.72 120.52C623.91 116.35 624 110.8 623.98 103.96C622.13 103.96 612.84 103.96 596.13 103.96L596.04 52.59L631.44 52.59L631.44 61.41L620.26 61.41L620.26 67.56L628.69 67.56L628.69 75.49L620.26 75.49L620.26 81.52L628.69 81.52L628.69 89.46L620.26 89.46L620.26 95.22L631.71 95.25C631.08 118.91 630.18 132 628.99 134.52ZM602.91 133.27C602.8 122.66 602.59 114.43 602.29 108.68C602.8 108.62 606.92 108.13 607.44 108.07C608.04 114.03 608.55 122.16 608.86 132.47C608.86 132.47 608.86 132.47 608.86 132.47C605.29 132.95 603.31 133.22 602.91 133.27ZM604.98 67.63L611.42 67.63L611.42 61.48L604.98 61.48L604.98 67.63ZM611.5 81.6L611.5 75.55L605.05 75.55L604.98 81.6L611.5 81.6ZM611.5 95.28L611.5 89.53L605.05 89.53L604.98 95.28L611.5 95.28ZM611.78 128.49C611.07 120.95 610.27 114.21 609.26 108.46C609.74 108.37 613.55 107.57 614.02 107.47C615.28 113.52 616.28 120.07 617.19 127.2C617.18 127.2 617.17 127.2 617.13 127.19C613.92 127.97 612.13 128.4 611.78 128.49ZM629.69 135.15C636.03 128.99 640.78 120.85 643.73 110.73C644.59 111.08 651.49 113.84 652.36 114.19C651.68 116.17 650.98 117.95 650.39 119.78C652.92 122.08 655.28 124.56 657.44 127.2C656.81 127.84 651.74 132.93 651.1 133.56C649.8 131.58 648.34 129.71 646.73 127.97C644.17 132.95 640.91 137.53 637.04 141.58C635.57 140.29 630.42 135.79 629.69 135.15ZM630.28 71.79C639.77 66.73 647.77 59.26 653.45 50.13C654.28 50.13 660.86 50.13 661.68 50.13C666.28 58.01 674.2 65.03 685.41 71.15C684.89 71.95 680.7 78.38 680.17 79.19C677.49 77.7 675.01 76.21 672.73 74.64C672.73 74.9 672.73 76.19 672.73 78.53L642.2 78.53C642.2 76.71 642.2 75.7 642.2 75.5C640.06 77.05 637.84 78.48 635.54 79.78C635.54 79.78 635.54 79.79 635.54 79.81C632.39 75 630.63 72.32 630.28 71.79ZM656.48 110.12L634.87 110.12L634.87 83.45L656.48 83.45L656.48 110.12ZM642.8 91.09L642.8 102.57L648.56 102.57L648.56 91.09L642.8 91.09ZM648.4 70.23C650.26 70.23 665.18 70.23 667.05 70.23C663.39 66.93 660.18 63.16 657.52 59.02C657.52 59.02 657.51 59.03 657.5 59.05C653.7 64.23 650.66 67.95 648.4 70.23ZM652.86 135.07C659.2 129.11 663.84 121.07 666.9 111.06C667.77 111.4 674.67 114.17 675.53 114.51C674.74 116.69 674.06 118.78 673.3 120.76C677.73 125.05 681.81 129.69 685.52 134.62C684.85 135.29 679.55 140.66 678.89 141.33C676.12 136.89 672.96 132.72 669.44 128.85C666.97 133.5 663.84 137.76 660.14 141.51C660.14 141.51 660.13 141.52 660.12 141.54C655.76 137.66 653.34 135.5 652.86 135.07ZM680.84 110.08L659.33 110.08L659.33 83.41L680.84 83.41L680.84 110.08ZM667.33 91.01L667.33 102.52L672.98 102.52L672.98 91.01L667.33 91.01Z" id="cKFFtdww8"></path><path d="M713.53 57.61C735.84 57.61 748.23 57.61 750.71 57.61C749.39 55.1 747.89 52.69 746.24 50.38C747.41 50.17 756.77 48.55 757.94 48.34C759.33 51.11 760.73 54.19 762.02 57.55C764.52 57.55 776.97 57.53 799.4 57.5L799.4 78.74L790.17 78.74L790.17 83.3C781.73 83.3 777.04 83.3 776.1 83.3C782.48 88.34 788.42 93.9 793.87 99.93C793.11 100.71 787.01 106.91 786.25 107.68C784.48 105.18 782.56 102.8 780.49 100.55C774.34 101.05 768.09 101.56 761.75 101.97C761.75 102.53 761.75 105.3 761.75 110.3L792.19 110.3L792.19 119.92L761.75 119.92L761.75 129.04L799.92 128.99L799.92 138.6L713.06 138.75L713.06 129.12L751.24 129.12L751.24 120L721.05 120L721.05 110.39L751.24 110.39C751.24 105.77 751.24 103.2 751.24 102.68C742.52 103.2 733.6 103.71 724.47 104.12C724.24 103.22 722.32 96.07 722.08 95.17C722.86 94.97 723.61 94.67 724.32 94.28C727.48 92.79 731.44 89.11 736.39 83.36C735.49 83.36 730.96 83.36 722.81 83.36L722.81 78.84L713.53 78.85L713.53 57.61ZM724.04 67.34L724.04 74.04L788.88 73.94L788.88 67.22L724.04 67.34ZM772.86 92.74C772.46 92.38 770.47 90.6 766.89 87.39L771.03 83.32C757.35 83.32 749.75 83.32 748.23 83.32C745.38 87.42 742.21 91.29 738.75 94.88C750.15 94.37 761.54 93.65 772.86 92.74Z" id="aL8FxJnm0"></path></defs><g><g><g><use xlink:href="#d1Umkk2lZz" opacity="1" fill="#fdb657" fill-opacity="1"></use><g><use xlink:href="#d1Umkk2lZz" opacity="1" fill-opacity="0" stroke="#000000" stroke-width="1" stroke-opacity="0"></use></g></g><g><use xlink:href="#gZ32YWNbk" opacity="1" fill="#424242" fill-opacity="1"></use><g><use xlink:href="#gZ32YWNbk" opacity="1" fill-opacity="0" stroke="#000000" stroke-width="1" stroke-opacity="0"></use></g></g><g><use xlink:href="#eHwgm70GJ" opacity="1" fill="#ffffff" fill-opacity="1"></use><g><use xlink:href="#eHwgm70GJ" opacity="1" fill-opacity="0" stroke="#000000" stroke-width="1" stroke-opacity="0"></use></g></g><g><use xlink:href="#ch1KZoBHf" opacity="1" fill="#424242" fill-opacity="1"></use><g><use xlink:href="#ch1KZoBHf" opacity="1" fill-opacity="0" stroke="#000000" stroke-width="1" stroke-opacity="0"></use></g></g><g><use xlink:href="#m1wmyE0IDj" opacity="1" fill="#424242" fill-opacity="1"></use><g><use xlink:href="#m1wmyE0IDj" opacity="1" fill-opacity="0" stroke="#000000" stroke-width="1" stroke-opacity="0"></use></g></g><g><use xlink:href="#i4yvye13x" opacity="1" fill="#424242" fill-opacity="1"></use><g><use xlink:href="#i4yvye13x" opacity="1" fill-opacity="0" stroke="#000000" stroke-width="1" stroke-opacity="0"></use></g></g><g><use xlink:href="#cKFFtdww8" opacity="1" fill="#424242" fill-opacity="1"></use><g><use xlink:href="#cKFFtdww8" opacity="1" fill-opacity="0" stroke="#000000" stroke-width="1" stroke-opacity="0"></use></g></g><g><use xlink:href="#aL8FxJnm0" opacity="1" fill="#424242" fill-opacity="1"></use><g><use xlink:href="#aL8FxJnm0" opacity="1" fill-opacity="0" stroke="#000000" stroke-width="1" stroke-opacity="0"></use></g></g></g></g></svg>