<?xml version="1.0" encoding="utf-8"?>
<!-- Generator: Adobe Illustrator 17.0.0, SVG Export Plug-In . SVG Version: 6.00 Build 0)  -->
<!DOCTYPE svg PUBLIC "-//W3C//DTD SVG 1.1//EN" "http://www.w3.org/Graphics/SVG/1.1/DTD/svg11.dtd">
<svg version="1.1" id="圖層_1" xmlns="http://www.w3.org/2000/svg" xmlns:xlink="http://www.w3.org/1999/xlink" x="0px" y="0px"
	 width="800px" height="800px" viewBox="0 0 800 800" enable-background="new 0 0 800 800" xml:space="preserve">
<title>資產 1</title>
<g id="圖層_2">
	<g id="圖層_4">
		<path fill="#FDB657" d="M158.509,472.681c8.876-4.617,27.87-10.061,31.983-11.179c0.465-0.141,0.785-0.565,0.794-1.051V304.994
			c0-0.617-0.501-1.118-1.118-1.118H1.118c-0.617,0-1.118,0.501-1.118,1.118v152.472c-0.011,0.54,0.365,1.01,0.894,1.118
			c9.133,1.632,85.364,15.315,101.73,18.468c9.983,1.923,30.664,5.88,36.254,17.764c0.299,0.54,0.98,0.735,1.52,0.435
			c0.252-0.14,0.441-0.372,0.526-0.648C142.333,488.589,146.502,478.908,158.509,472.681z"/>
		<path fill="#424242" d="M88.416,441.938h28.451c30.631,0,52.665-24.717,56.421-58.567c4.27-38.445-26.83-61.72-59.104-61.72
			c-47.489,0-84.704-0.056-92.138-0.067c-0.568-0.001-1.029,0.458-1.031,1.026c0,0.091,0.012,0.182,0.036,0.27
			c1.386,4.986,6.517,22.917,10.922,31.469c9.133,17.719,25.656,18.278,26.863,18.278c-17.372,0-20.413,26.327-22.559,37.607
			c-2.56,13.415-10.71,58.064-15.394,83.843c-0.191,0.938,0.414,1.853,1.351,2.044c0.118,0.024,0.239,0.036,0.359,0.035h54.263
			c0.853,0.006,1.584-0.611,1.722-1.453l8.82-51.871C87.466,442.322,87.9,441.94,88.416,441.938z"/>
		<path fill="#FFFFFF" d="M144.211,385.104h-14.287l2.37-14.153h8.865c0.337,0.005,0.627-0.238,0.682-0.57l2.996-17.574
			c0.093-0.371-0.132-0.748-0.503-0.841c-0.04-0.01-0.082-0.017-0.123-0.019h-8.72l2.012-12.442
			c0.099-0.559-0.275-1.093-0.834-1.192c-0.061-0.011-0.122-0.016-0.183-0.016h-17.093c-0.509,0.003-0.942,0.371-1.028,0.872
			l-2.102,12.778h-14.41l2.113-12.487c0.093-0.56-0.287-1.09-0.847-1.182c-0.06-0.01-0.121-0.014-0.182-0.014H85.844
			c-0.504-0.001-0.935,0.363-1.017,0.861l-2.169,12.822H65.141c-0.377,0-0.682,0.305-0.682,0.682c0,0.004,0,0.008,0,0.011l0,0
			c0.002,8.858,6.367,16.434,15.092,17.965l-2.415,14.499H65.141c-0.377,0-0.682,0.305-0.682,0.682c0,0.004,0,0.008,0,0.011l0,0
			c-0.001,6.818,3.803,13.067,9.86,16.199l-2.415,14.533c-0.086,0.574,0.309,1.109,0.883,1.196c0.048,0.007,0.097,0.011,0.146,0.012
			h17.093c0.506,0.006,0.939-0.361,1.017-0.861l2.135-12.811h14.399l-2.079,12.487c-0.093,0.567,0.292,1.101,0.858,1.194
			c0.053,0.009,0.106,0.013,0.159,0.014h17.093c0.507,0.002,0.941-0.362,1.028-0.861l2.135-12.845h14.388
			c0.335,0,0.622-0.24,0.682-0.57l2.996-17.574c0.069-0.37-0.176-0.726-0.546-0.795
			C144.264,385.109,144.237,385.106,144.211,385.104z M96.375,385.104l2.325-14.153h14.399l-2.37,14.153H96.375z"/>
		<path fill="#424242" d="M262.195,415.444c-1.926,9.177-5.164,18.029-9.614,26.282l-8.53-5.455
			c4.148-7.09,7.126-14.802,8.82-22.839L262.195,415.444z M245.941,392.191v-9.469h10.061c-1.094-3.151-2.456-6.203-4.069-9.122
			l9.022-3.466c1.669,4.109,3.095,8.312,4.27,12.588h8.72c1.397-4.058,2.683-8.228,3.779-12.588l9.212,3.275
			c-1.006,3.185-2.231,6.296-3.667,9.312h9.715v9.469h-18.2v8.027h16.567v9.424h-16.567v35.203h-10.307v-35.248h-16.959v-9.424
			h16.959v-7.982H245.941z M264.073,360.219c-1.121-2.369-2.41-4.656-3.857-6.842l10.698-1.789c1.196,2.582,2.236,5.455,3.477,8.63
			h18.043v9.513h-45.51v-9.513H264.073z M290.903,429.82l-8.619,3.354c-1.502-6.12-3.369-12.145-5.59-18.043l8.53-2.236
			c2.172,5.539,4.049,11.188,5.623,16.925H290.903z M334.837,362.6c-9.032,2.882-18.4,4.581-27.87,5.053v15.371h29.949v9.815h-9.122
			v51.659h-10.307V392.84h-10.609v9.323c-0.492,17.652-4.36,31.626-11.693,42.134l-7.445-7.825
			c5.657-8.239,8.731-19.642,9.122-34.309v-42.939c11.196-0.037,22.301-2.016,32.822-5.847L334.837,362.6z"/>
		<path fill="#424242" d="M404.516,386.099h-29.155v58.198h-10.307v-88.639h39.462L404.516,386.099z M394.399,363.193h-19.004v3.969
			h19.004V363.193z M375.395,378.564h19.004v-4.472h-19.004V378.564z M381.845,399.19v-8.731h50.306v8.731h-6.54v25.477h7.926v8.731
			h-7.926v9.223h-9.122v-9.223h-35.572v-8.731h7.233V399.19H381.845z M397.306,399.19v4.058h19.239v-4.058H397.306z
			 M416.545,414.058v-3.98h-19.273v3.969L416.545,414.058z M416.545,424.667v-3.767h-19.273v3.767H416.545z M411.492,386.199
			v-30.541h39.026v78.925c0,6.35-3.354,9.525-10.061,9.525c-3.175,0-6.339-0.201-9.413-0.402l-2.381-9.223
			c2.692,0.383,5.408,0.585,8.127,0.604c2.18,0,3.354-1.297,3.354-3.678v-45.208H411.492z M440.245,363.394h-18.68v3.767h18.647
			L440.245,363.394z M421.565,378.665h18.647v-4.561h-18.647V378.665z"/>
		<path fill="#424242" d="M551.812,370.873l-0.783,8.72h14.779v8.127h-15.573l-0.771,8.63l-56.466,0.101l1.274-8.63H480.3v-8.127
			h15.17l1.207-8.742L551.812,370.873z M553.445,399.626l0.056,32.721h-9.525c6.555,1.16,13.048,2.652,19.452,4.472l-3.264,8.239
			c-9.741-3.583-19.762-6.354-29.96-8.284l2.37-4.472h-19.832l3.186,4.259c-6.942,3.477-16.948,6.372-29.927,8.675l-4.673-8.027
			c8.097-0.993,16.108-2.589,23.968-4.773h-12.588l-0.056-32.721L553.445,399.626z M564.545,376.697h-9.715v-9.402l-63.665,0.101
			v9.424h-9.726v-17.54l36.287-0.067c-0.727-1.793-1.556-3.544-2.482-5.243l10.408-1.811c0.894,2.079,1.789,4.472,2.683,7.043
			l36.209-0.056V376.697z M543.741,408.859v-3.354l-41.363,0.067v3.354L543.741,408.859z M543.741,417.389v-3.275l-41.363,0.067
			v3.275L543.741,417.389z M543.741,422.744l-41.363,0.067v3.354l41.363-0.067V422.744z M517.235,390.559l0.592-3.868h-14.175
			l-0.693,3.868H517.235z M518.711,380.945l0.693-3.969h-13.985l-0.693,4.036L518.711,380.945z M526.257,390.548h14.388l0.481-3.868
			h-14.276L526.257,390.548z M527.733,380.923h14.086l0.391-3.969h-13.784L527.733,380.923z"/>
		<path fill="#424242" d="M600.497,411.252c-0.174,9.349-0.887,18.681-2.135,27.948l-5.869-1.766
			c1.445-8.876,2.293-17.84,2.538-26.83L600.497,411.252z M631.71,398.407c0,22.358-0.939,35.494-2.717,39.272
			c-1.777,3.779-5.344,5.657-10.497,5.668c-1.487,0-3.074-0.101-4.662-0.19l-2.001-8.328c1.706,0.3,3.433,0.461,5.165,0.481
			c3.566,0,5.59-1.889,6.137-5.59c0.101-0.894,0.19-1.979,0.391-3.175l-4.069,1.599c-0.894-5.947-2.001-11.805-3.197-17.451
			l4.561-1.297c1.196,5.154,2.091,9.916,2.895,14.276c0.19-4.17,0.279-9.715,0.268-16.556h-27.858l-0.089-51.368h35.404v8.82
			h-11.179v6.148h8.429v7.926h-8.429v6.037h8.429v7.937h-8.429v5.757L631.71,398.407z M608.859,435.622l-5.947,0.805
			c-0.112-10.609-0.324-18.837-0.626-24.594l5.154-0.604C608.043,417.188,608.546,425.315,608.859,435.622L608.859,435.622z
			 M604.98,364.635v6.148h6.439v-6.148H604.98z M604.98,384.757h6.517v-6.048h-6.45L604.98,384.757z M604.98,398.441h6.517v-5.757
			h-6.45L604.98,398.441z M617.132,430.346l-5.355,1.297c-0.704-7.535-1.509-14.276-2.515-20.022l4.762-0.995
			c1.252,6.048,2.258,12.599,3.164,19.731L617.132,430.346z M637.042,444.733l-7.356-6.428c6.339-6.16,11.09-14.298,14.041-24.415
			l8.63,3.454c-0.682,1.979-1.375,3.767-1.968,5.59c2.53,2.298,4.888,4.779,7.054,7.423l-6.339,6.361
			c-1.3-1.98-2.762-3.85-4.371-5.59C644.171,436.103,640.907,440.685,637.042,444.733z M635.544,382.969l-5.265-8.027
			c9.494-5.055,17.487-12.524,23.174-21.654h8.228c4.595,7.881,12.521,14.902,23.733,21.017l-5.243,8.038
			c-2.683-1.487-5.165-2.974-7.445-4.55v3.89h-30.53v-3.03c-2.132,1.556-4.353,2.986-6.652,4.282L635.544,382.969z M656.482,386.602
			v26.673h-21.609v-26.673H656.482z M648.556,394.248h-5.757v11.481h5.757L648.556,394.248z M657.5,362.209
			c-2.657,4.017-5.705,7.762-9.1,11.179h18.647c-3.66-3.297-6.863-7.068-9.525-11.213L657.5,362.209z M660.116,444.7l-7.255-6.473
			c6.339-5.958,10.978-13.996,14.041-24.013l8.63,3.454c-0.794,2.18-1.476,4.27-2.236,6.249c4.432,4.291,8.518,8.926,12.219,13.862
			l-6.629,6.707c-2.765-4.436-5.927-8.611-9.446-12.476c-2.472,4.646-5.605,8.908-9.301,12.655L660.116,444.7z M680.842,386.568
			v26.673h-21.509v-26.673H680.842z M672.983,394.17h-5.657v11.503h5.657V394.17z"/>
		<path fill="#424242" d="M713.53,382.007v-21.24h37.182c-1.326-2.509-2.82-4.925-4.472-7.233l11.704-2.035
			c1.386,2.772,2.784,5.847,4.08,9.212l37.372-0.056v21.24h-9.223v4.561h-14.075c6.38,5.038,12.326,10.602,17.775,16.635
			l-7.624,7.747c-1.765-2.497-3.688-4.88-5.757-7.132c-6.148,0.503-12.398,1.006-18.747,1.42v8.328h30.441v9.625h-30.441v9.122
			l38.177-0.056v9.614l-86.862,0.145v-9.625h38.177v-9.122h-30.184v-9.614h30.184v-7.702c-8.72,0.514-17.641,1.028-26.763,1.431
			l-2.392-8.943c0.78-0.202,1.532-0.502,2.236-0.894c3.164-1.487,7.121-5.165,12.073-10.922h-13.583v-4.516L713.53,382.007z
			 M788.877,370.381l-64.839,0.112v6.707l64.839-0.101V370.381z M738.75,398.038c11.403-0.514,22.794-1.23,34.107-2.146l-5.97-5.344
			l4.147-4.069h-22.805C745.381,390.577,742.211,394.443,738.75,398.038z"/>
	</g>
</g>
</svg>
