<?xml version="1.0" encoding="UTF-8"?>
<svg width="70px" height="87px" viewBox="0 0 70 87" version="1.1" xmlns="http://www.w3.org/2000/svg" xmlns:xlink="http://www.w3.org/1999/xlink">
    <!-- Generator: Sketch 52.6 (67491) - http://www.bohemiancoding.com/sketch -->
    <title>2</title>
    <desc>Created with Sketch.</desc>
    <defs>
        <path d="M60.5,54.3333333 C60.5,54.8666693 60.433334,55.4999963 60.3,56.2333333 C59.299995,61.9000283 58.533336,68.7332933 58,76.7333333 C49.99996,76.3999983 42.200038,76.2333333 34.6,76.2333333 C34.199998,76.2333333 33.400006,76.2666663 32.2,76.3333333 C30.599992,76.4000003 29.266672,76.4333333 28.2,76.4333333 L14.9,76.7333333 C14.433331,76.7333333 13.933336,76.7666663 13.4,76.8333333 L12.6,76.8333333 C10.199988,76.8333333 9,76.4333373 9,75.6333333 C9,75.0999973 9.499995,74.4333373 10.5,73.6333333 C18.633374,67.1666343 25.5166385,60.8166978 31.15,54.5833333 C36.7833615,48.3499688 39.6,40.5333803 39.6,31.1333333 C39.6,24.8666353 38.100015,20.0666833 35.1,16.7333333 C32.966656,14.3999883 30.100018,13.2333333 26.5,13.2333333 C23.499985,13.2333333 21.0166765,14.0833248 19.05,15.7833333 C17.0833235,17.4833418 16.1,19.2666573 16.1,21.1333333 C16.1,22.2000053 16.566662,22.8666653 17.5,23.1333333 C17.833335,23.2000003 18.799992,23.2999993 20.4,23.4333333 C22.466677,23.5666673 24.133327,24.3166598 25.4,25.6833333 C26.666673,27.0500068 27.3,28.7666563 27.3,30.8333333 C27.3,32.9000103 26.700006,34.5833268 25.5,35.8833333 C24.299994,37.1833398 22.733343,37.8333333 20.8,37.8333333 C18.266654,37.8333333 16.2166745,36.8666763 14.65,34.9333333 C13.0833255,32.9999903 12.3,30.4333493 12.3,27.2333333 C12.3,21.7666393 14.1499815,17.4833488 17.85,14.3833333 C21.5500185,11.2833178 26.633301,9.73333333 33.1,9.73333333 C39.7667,9.73333333 45.199979,11.5833148 49.4,15.2833333 C53.600021,18.9833518 55.7,23.7666373 55.7,29.6333333 C55.7,41.1667243 45.066773,52.7666083 23.8,64.4333333 L27.1,64.3333333 L36.2,64.2333333 C43.466703,64.1666663 48.166656,64.0000013 50.3,63.7333333 C53.166681,63.4666653 55.099995,62.8000053 56.1,61.7333333 C56.833337,60.8666623 57.466664,59.0666803 58,56.3333333 C58.400002,54.0666553 58.93333,52.9333333 59.6,52.9333333 C60.200003,52.9333333 60.5,53.3999953 60.5,54.3333333 Z" id="path-1"></path>
        <filter x="-29.1%" y="-22.4%" width="158.3%" height="144.7%" filterUnits="objectBoundingBox" id="filter-2">
            <feOffset dx="0" dy="0" in="SourceAlpha" result="shadowOffsetOuter1"></feOffset>
            <feGaussianBlur stdDeviation="5" in="shadowOffsetOuter1" result="shadowBlurOuter1"></feGaussianBlur>
            <feColorMatrix values="0 0 0 0 0   0 0 0 0 0   0 0 0 0 0  0 0 0 0.5 0" type="matrix" in="shadowBlurOuter1"></feColorMatrix>
        </filter>
    </defs>
    <g id="Welcome" stroke="none" stroke-width="1" fill="none" fill-rule="evenodd">
        <g id="2">
            <use fill="black" fill-opacity="1" filter="url(#filter-2)" xlink:href="#path-1"></use>
            <use fill="#FFFFFF" fill-rule="evenodd" xlink:href="#path-1"></use>
        </g>
    </g>
</svg>