<?xml version="1.0" encoding="UTF-8"?>
<svg width="66px" height="88px" viewBox="0 0 66 88" version="1.1" xmlns="http://www.w3.org/2000/svg" xmlns:xlink="http://www.w3.org/1999/xlink">
    <!-- Generator: Sketch 52.6 (67491) - http://www.bohemiancoding.com/sketch -->
    <title>3</title>
    <desc>Created with Sketch.</desc>
    <defs>
        <path d="M56,57.0666667 C56,63.0000297 53.33336,67.9499802 48,71.9166667 C42.66664,75.8833532 35.966707,77.8666667 27.9,77.8666667 C22.299972,77.8666667 17.9166825,76.8000107 14.75,74.6666667 C11.5833175,72.5333227 10,69.6000187 10,65.8666667 C10,63.4666547 10.7499925,61.5000077 12.25,59.9666667 C13.7500075,58.4333257 15.699988,57.6666667 18.1,57.6666667 C22.633356,57.6666667 24.9,59.7333127 24.9,63.8666667 C24.9,67.0666827 22.733355,69.2999937 18.4,70.5666667 C16.866659,71.0333357 16.1,71.5666637 16.1,72.1666667 C16.1,72.9000037 17.0499905,73.6666627 18.95,74.4666667 C20.8500095,75.2666707 22.733324,75.6666667 24.6,75.6666667 C29.466691,75.6666667 33.266653,74.0333497 36,70.7666667 C38.733347,67.4999837 40.1,62.9333627 40.1,57.0666667 C40.1,51.3999717 38.466683,47.3666787 35.2,44.9666667 C32.999989,43.3666587 30.400015,42.5666667 27.4,42.5666667 L26,42.5666667 C25.533331,42.6333337 24.766672,42.6666667 23.7,42.6666667 C22.899996,42.6666667 22.5,42.4000027 22.5,41.8666667 C22.5,41.3999977 22.6499985,41.1000007 22.95,40.9666667 C23.2500015,40.8333327 24.39999,40.6000017 26.4,40.2666667 C29.133347,39.7999977 31.4166575,38.1833472 33.25,35.4166667 C35.0833425,32.6499862 36,29.4666847 36,25.8666667 C36,22.1999817 34.900011,19.2166782 32.7,16.9166667 C30.499989,14.6166552 27.633351,13.4666667 24.1,13.4666667 C21.833322,13.4666667 19.833342,13.9666617 18.1,14.9666667 C16.366658,15.9666717 15.5,17.1333267 15.5,18.4666667 C15.5,19.0666697 15.933329,19.4333327 16.8,19.5666667 C21.866692,20.5000047 24.4,22.6999827 24.4,26.1666667 C24.4,27.9000087 23.866672,29.3166612 22.8,30.4166667 C21.733328,31.5166722 20.333342,32.0666667 18.6,32.0666667 C16.266655,32.0666667 14.43334,31.3666737 13.1,29.9666667 C11.76666,28.5666597 11.1,26.6666787 11.1,24.2666667 C11.1,19.9999787 12.866649,16.5500132 16.4,13.9166667 C19.933351,11.2833202 24.533305,9.96666667 30.2,9.96666667 C36.733366,9.96666667 41.99998,11.3499862 46,14.1166667 C50.00002,16.8833472 52,20.4999777 52,24.9666667 C52,28.5000177 50.4833485,31.6666527 47.45,34.4666667 C44.4166515,37.2666807 40.400025,39.1999947 35.4,40.2666667 L35.5,40.7666667 C40.300024,40.8333337 44.633314,42.0333217 48.5,44.3666667 C53.500025,47.3666817 56,51.5999727 56,57.0666667 Z" id="path-1"></path>
        <filter x="-32.6%" y="-22.1%" width="165.2%" height="144.2%" filterUnits="objectBoundingBox" id="filter-2">
            <feOffset dx="0" dy="0" in="SourceAlpha" result="shadowOffsetOuter1"></feOffset>
            <feGaussianBlur stdDeviation="5" in="shadowOffsetOuter1" result="shadowBlurOuter1"></feGaussianBlur>
            <feColorMatrix values="0 0 0 0 0   0 0 0 0 0   0 0 0 0 0  0 0 0 0.5 0" type="matrix" in="shadowBlurOuter1"></feColorMatrix>
        </filter>
    </defs>
    <g id="Welcome" stroke="none" stroke-width="1" fill="none" fill-rule="evenodd">
        <g id="3">
            <use fill="black" fill-opacity="1" filter="url(#filter-2)" xlink:href="#path-1"></use>
            <use fill="#FFFFFF" fill-rule="evenodd" xlink:href="#path-1"></use>
        </g>
    </g>
</svg>