<svg id="圖層_1" data-name="圖層 1" xmlns="http://www.w3.org/2000/svg" viewBox="0 0 1024 1024"><defs><style>.cls-1{fill:#444746;}.cls-2{fill:#ddcf21;}</style></defs><title>READr logo</title><path class="cls-1" d="M586.56,830.84q0,13.25-7.46,22.29T557.64,867l42,50.18H567.15l-36-45.33h-8.39v45.33H496.64V793h37.12A91,91,0,0,1,555,795.3a50.4,50.4,0,0,1,16.7,7.09,34.23,34.23,0,0,1,10.91,11.85A33.79,33.79,0,0,1,586.56,830.84Zm-26.12.56q0-9.51-7.46-13.8t-19.4-4.29H522.76v38.8h7.83q13.43,0,21.64-5.22T560.44,831.4Z"/><path class="cls-1" d="M612.67,793h74.62v20.71h-48.5v30H685v20.71H638.79V896.5h49.06v20.71H612.67Z"/><path class="cls-1" d="M823.84,917.21H796.79L788,891.09H736.91l-8.77,26.12h-27L748.29,793h28.35ZM762.46,813.86l-18.65,56.52h37.31Z"/><path class="cls-1" d="M840.44,793h37.5a89.78,89.78,0,0,1,29.75,4.66,67.9,67.9,0,0,1,22.76,13A57.41,57.41,0,0,1,945,830.28a62.55,62.55,0,0,1,0,49.62,57.35,57.35,0,0,1-14.55,19.68,67.81,67.81,0,0,1-22.76,13,89.71,89.71,0,0,1-29.75,4.66h-37.5ZM878.5,896.5a57.23,57.23,0,0,0,18.28-2.81,41.53,41.53,0,0,0,14.46-8.15,36.68,36.68,0,0,0,9.42-13,46.9,46.9,0,0,0,0-34.85,36.74,36.74,0,0,0-9.42-13,41.57,41.57,0,0,0-14.46-8.15,57.23,57.23,0,0,0-18.28-2.81H866.56V896.5Z"/><path class="cls-1" d="M1024,848.18h-4.29q-9.51,0-15.86,3a24.24,24.24,0,0,0-10.07,8.58v57.46H968.22V826.36h24.62v16a25.39,25.39,0,0,1,8.3-12.5q5.69-4.48,15.2-4.48a28.67,28.67,0,0,1,7.65.93Z"/><path class="cls-1" d="M112.64,198.18V146.43H311.87v51.75Zm14.76,86.25V237.61H297.11v46.82Zm0,88.72V326.33H297.11v46.82ZM139.7,107V60.18H287.27V107ZM319.25,631.92l-9.84-19.72q-5-14.79-9.84-22.18,76.21-17.27,157.42-34.5L476.67,590A1383,1383,0,0,1,319.25,631.92Zm-4.92-515.06V77.43H474.21v-37H535.7v37H700.5v39.43H535.7v29.57H675.9v34.5H334v-34.5h140.2V116.86Zm7.38,189.76V208H688.2v98.58Zm17.22,244V333.72H671V550.59Zm34.44-313v37h56.57v-37ZM395.5,368.23V397.8H614.41V368.23Zm0,59.15v27.11H614.41V427.37Zm0,59.15v27.11H614.41V486.52Zm78.71-248.9v37H535.7v-37Zm218.91,394.3q-64-12.37-164.8-44.36l19.68-37q81.17,19.69,162.34,37ZM639,237.61H577.51v37H639Z"/><path class="cls-1" d="M129.86,415v207h164.8V415ZM247.92,577.22H179.05V464.34h68.87Z"/><polygon class="cls-2" points="465.92 685.58 235.52 844.3 235.52 685.58 61.44 685.58 61.44 40.46 0 40.46 0 747.02 168.96 747.02 168.96 982.54 501.76 747.02 1024 747.02 1024 685.58 465.92 685.58"/><polygon class="cls-1" points="1024 153.1 911.36 153.1 911.36 40.46 849.92 40.46 849.92 153.1 737.28 153.1 737.28 214.54 849.92 214.54 849.92 327.18 911.36 327.18 911.36 214.54 1024 214.54 1024 153.1"/></svg>