<?xml version="1.0" encoding="UTF-8"?>
<svg width="70px" height="70px" viewBox="0 0 70 70" version="1.1" xmlns="http://www.w3.org/2000/svg" xmlns:xlink="http://www.w3.org/1999/xlink">
    <title>Combined Shape Copy 4</title>
    <g id="Welcome" stroke="none" stroke-width="1" fill="none" fill-rule="evenodd">
        <path d="M57.5,0 C64.4035594,0 70,5.59644063 70,12.5 C70,19.4035594 64.4035594,25 57.5,25 C52.3998035,25 48.0130229,21.9455038 46.0691962,17.5660497 L23.8510897,29.758051 C24.5885253,31.3522532 25,33.1280741 25,35 C25,36.8719259 24.5885253,38.6477468 23.8510897,40.241949 L46.0691962,52.4339503 C48.0130229,48.0544962 52.3998035,45 57.5,45 C64.4035594,45 70,50.5964406 70,57.5 C70,64.4035594 64.4035594,70 57.5,70 C50.5964406,70 45,64.4035594 45,57.5 C45,56.4112537 45.1391936,55.3550178 45.4007559,54.3481171 L22.8696267,41.9823065 C20.6238599,45.3110137 16.8175625,47.5 12.5,47.5 C5.59644063,47.5 0,41.9035594 0,35 C0,28.0964406 5.59644063,22.5 12.5,22.5 C16.8175625,22.5 20.6238599,24.6889863 22.8696267,28.0176935 L45.4010156,15.6528824 C45.1392857,14.6456812 45,13.5891066 45,12.5 C45,5.59644063 50.5964406,0 57.5,0 Z M57.5,47.5 C51.9771525,47.5 47.5,51.9771525 47.5,57.5 C47.5,63.0228475 51.9771525,67.5 57.5,67.5 C63.0228475,67.5 67.5,63.0228475 67.5,57.5 C67.5,51.9771525 63.0228475,47.5 57.5,47.5 Z M12.5,25 C6.9771525,25 2.5,29.4771525 2.5,35 C2.5,40.5228475 6.9771525,45 12.5,45 C18.0228475,45 22.5,40.5228475 22.5,35 C22.5,29.4771525 18.0228475,25 12.5,25 Z M57.5,2.5 C51.9771525,2.5 47.5,6.9771525 47.5,12.5 C47.5,18.0228475 51.9771525,22.5 57.5,22.5 C63.0228475,22.5 67.5,18.0228475 67.5,12.5 C67.5,6.9771525 63.0228475,2.5 57.5,2.5 Z" id="Combined-Shape-Copy-4" fill="#135268" fill-rule="nonzero"></path>
    </g>
</svg>