<svg xmlns="http://www.w3.org/2000/svg" viewBox="0 0 1024 1024" xmlns:v="https://vecta.io/nano"><path d="M586.56 830.84q0 13.25-7.46 22.3-7.46 9.04-21.46 13.87l42 50.18h-32.5l-36-45.33h-8.4v45.33h-26.12V793h37.12a91 91 0 0 1 21.24 2.3 50.4 50.4 0 0 1 16.7 7.09 34.23 34.23 0 0 1 10.91 11.85 33.79 33.79 0 0 1 3.95 16.6zm-26.12.56q0-9.5-7.46-13.8-7.46-4.3-19.4-4.3h-10.82v38.8h7.83q13.43 0 21.64-5.22 8.2-5.22 8.2-15.5zm52.23-38.4h74.62v20.7h-48.5v30H685v20.7h-46.2v32.08h49.06v20.7h-75.18zm211.17 124.2H796.8l-8.8-26.1h-51.1l-8.77 26.12h-27L748.3 793h28.35zm-61.38-103.35l-18.65 56.52h37.3zM840.44 793h37.5a89.78 89.78 0 0 1 29.75 4.66 67.9 67.9 0 0 1 22.76 13A57.41 57.41 0 0 1 945 830.28a62.55 62.55 0 0 1 0 49.62 57.35 57.35 0 0 1-14.55 19.68 67.81 67.81 0 0 1-22.76 13 89.71 89.71 0 0 1-29.75 4.66h-37.5zm38.06 103.5a57.23 57.23 0 0 0 18.28-2.81 41.53 41.53 0 0 0 14.46-8.15 36.68 36.68 0 0 0 9.42-13 46.9 46.9 0 0 0 0-34.85 36.74 36.74 0 0 0-9.42-13 41.57 41.57 0 0 0-14.46-8.15 57.23 57.23 0 0 0-18.28-2.81h-11.94v82.77zm145.5-48.32h-4.3q-9.5 0-15.86 3a24.24 24.24 0 0 0-10.07 8.58v57.46H968.2v-90.86h24.62v16a25.39 25.39 0 0 1 8.3-12.5q5.7-4.48 15.2-4.48a28.67 28.67 0 0 1 7.65.93zm-911.36-650v-51.75h199.23v51.75zm14.76 86.25V237.6h169.7v46.82zm0 88.72v-46.82h169.7v46.82zM139.7 107V60.18h147.57V107zm179.55 524.92l-9.84-19.72q-5-14.8-9.84-22.18 76.2-17.27 157.42-34.5L476.67 590a1383 1383 0 0 1-157.42 41.92zm-4.92-515.06V77.43H474.2v-37h61.5v37h164.8v39.43H535.7v29.57h140.2v34.5H334v-34.5h140.2v-29.57zm7.38 189.76V208h366.5v98.58zm17.22 244v-216.9H671V550.6zm34.44-313v37h56.57v-37zm22.13 130.6v29.57h218.9v-29.57zm0 59.15v27.1h218.9v-27.12zm0 59.15v27.1h218.9V486.5zm78.7-248.9v37h61.5v-37zm218.9 394.3q-64-12.37-164.8-44.36l19.68-37q81.17 19.7 162.34 37zM639 237.6h-61.5v37H639zM129.86 415v207h164.8V415zm118.06 162.22h-68.87V464.34h68.87z" fill="#444746"/><path d="M465.92 685.58L235.52 844.3V685.58H61.44V40.46H0v706.56h168.96v235.52l332.8-235.52H1024v-61.44H465.92z" fill="#ddcf21"/><path d="M1024 153.1H911.36V40.46h-61.44V153.1H737.28v61.44h112.64v112.64h61.44V214.54H1024V153.1z" fill="#444746"/></svg>