<svg xmlns="http://www.w3.org/2000/svg" viewBox="0 0 45 45" xmlns:v="https://vecta.io/nano"><path d="M35.5,14.5c2.8,0,5-2.2,5-5s-2.2-5-5-5s-5,2.2-5,5 S32.7,14.5,35.5,14.5z M35.5,17.5c4.4,0,8-3.6,8-8s-3.6-8-8-8s-8,3.6-8,8c0,0.9,0.1,1.7,0.4,2.5l-11.7,6.1 c-1.4-2.2-3.9-3.6-6.7-3.6c-4.4,0-8,3.6-8,8s3.6,8,8,8c2.9,0,5.5-1.6,6.9-3.9l11.4,6.6c-0.2,0.7-0.3,1.5-0.3,2.3c0,4.4,3.6,8,8,8 s8-3.6,8-8s-3.6-8-8-8c-2.5,0-4.8,1.2-6.3,3l-11.8-6.8c0.1-0.4,0.1-0.8,0.1-1.2c0-0.5-0.1-1.1-0.2-1.6l12-6.3 C30.8,16.4,33,17.5,35.5,17.5z M35.5,40.5c2.8,0,5-2.2,5-5s-2.2-5-5-5s-5,2.2-5,5S32.7,40.5,35.5,40.5z M14.5,22.5c0,2.8-2.2,5-5,5 s-5-2.2-5-5s2.2-5,5-5S14.5,19.7,14.5,22.5z" fill-rule="evenodd" fill="#000928"/></svg>