<?xml version="1.0" encoding="utf-8"?>
<svg viewBox="0 0 100 100" xmlns="http://www.w3.org/2000/svg">
  <defs>
    <filter id="filter1_d" x="0" y="102" width="48" height="48" filterUnits="userSpaceOnUse" color-interpolation-filters="sRGB">
      <feFlood flood-opacity="0" result="BackgroundImageFix"/>
      <feColorMatrix in="SourceAlpha" type="matrix" values="0 0 0 0 0 0 0 0 0 0 0 0 0 0 0 0 0 0 127 0"/>
      <feOffset dy="4"/>
      <feGaussianBlur stdDeviation="2"/>
      <feColorMatrix type="matrix" values="0 0 0 0 0 0 0 0 0 0 0 0 0 0 0 0 0 0 0.25 0"/>
      <feBlend mode="normal" in2="BackgroundImageFix" result="effect1_dropShadow"/>
      <feBlend mode="normal" in="SourceGraphic" in2="effect1_dropShadow" result="shape"/>
    </filter>
    <clipPath id="clip0">
      <rect width="28" height="9.77403" fill="white" transform="translate(10 117)"/>
    </clipPath>
  </defs>
  <g filter="url(#filter1_d)" transform="matrix(2.5, 0, 0, 2.5, -10, -255)" style="">
    <circle cx="24" cy="122" r="20" fill="#000928"/>
    <g clip-path="url(#clip0)">
      <path d="M19.6796 117H18.2159C17.9798 117 17.7909 117.189 17.7909 117.378V126.349C17.7909 126.585 17.9798 126.727 18.2159 126.727H19.6796C19.9157 126.727 20.1046 126.538 20.1046 126.349V117.378C20.0573 117.189 19.9157 117 19.6796 117Z" fill="white"/>
      <path d="M29.6425 117H28.1788C27.9427 117 27.7538 117.189 27.7538 117.378V122.713L23.6459 117.189C23.6459 117.189 23.6459 117.142 23.5987 117.142C23.5987 117.142 23.5987 117.142 23.5514 117.094C23.5514 117.094 23.5514 117.094 23.5042 117.094H22.0405C21.8044 117.094 21.6155 117.283 21.6155 117.472V126.444C21.6155 126.68 21.8044 126.821 22.0405 126.821H23.5042C23.7403 126.821 23.9292 126.632 23.9292 126.444V121.061L28.0371 126.632C28.0843 126.68 28.0843 126.727 28.1315 126.727C28.1315 126.727 28.1315 126.727 28.1788 126.727C28.1788 126.727 28.1788 126.727 28.226 126.727C28.2732 126.727 28.2732 126.727 28.3204 126.727H29.7842C30.0202 126.727 30.2091 126.538 30.2091 126.349V117.378C30.0202 117.189 29.8314 117 29.6425 117Z" fill="white"/>
      <path d="M16.1855 124.555H12.2664V117.425C12.2664 117.189 12.0776 117 11.8415 117H10.425C10.1889 117 10 117.189 10 117.425V126.396C10 126.491 10.0472 126.585 10.0944 126.68C10.1889 126.727 10.2833 126.774 10.3777 126.774H16.1383C16.3744 126.774 16.516 126.585 16.516 126.349V124.885C16.5632 124.744 16.4216 124.555 16.1855 124.555Z" fill="white"/>
      <path d="M37.6223 119.266C37.8583 119.266 38 119.078 38 118.841V117.425C38 117.189 37.8583 117 37.6223 117H31.8617C31.7673 117 31.6729 117.047 31.5784 117.094C31.5312 117.189 31.484 117.283 31.484 117.378V126.349C31.484 126.444 31.5312 126.538 31.5784 126.632C31.6729 126.68 31.7673 126.727 31.8617 126.727H37.6223C37.8583 126.727 38 126.538 38 126.302V124.838C38 124.602 37.8111 124.413 37.6223 124.413H33.7032V122.902H37.6223C37.8583 122.902 38 122.713 38 122.477V121.155C38 120.966 37.8583 120.777 37.6223 120.777H33.7032V119.266H37.6223Z" fill="white"/>
    </g>
  </g>
</svg>