<?xml version="1.0" encoding="UTF-8" standalone="no"?>
<!DOCTYPE svg PUBLIC "-//W3C//DTD SVG 1.1//EN" "http://www.w3.org/Graphics/SVG/1.1/DTD/svg11.dtd">
<svg version="1.1" xmlns="http://www.w3.org/2000/svg" xmlns:xlink="http://www.w3.org/1999/xlink" preserveAspectRatio="xMidYMid meet" viewBox="0 0 26 26" width="26" height="26"><defs><path d="M24 25.97C25.11 25.97 26 25.08 26 23.97C26 21.78 26 4.2 26 2C26 0.9 25.11 0 24 0C21.8 0 4.23 0 2.03 0C0.93 0 0.03 0.9 0.03 2C0.03 3.46 0.03 10.79 0.03 23.97C0.63 25.31 1.3 25.97 2.03 25.97C4.23 25.97 21.8 25.97 24 25.97Z" id="bTQTDqXul"></path><path d="M24 25.97C25.11 25.97 26 25.08 26 23.97C26 21.78 26 4.2 26 2C26 0.9 25.11 0 24 0C21.8 0 4.23 0 2.03 0C0.93 0 0.03 0.9 0.03 2C0.03 3.46 0.03 10.79 0.03 23.97C0.63 25.31 1.3 25.97 2.03 25.97C4.23 25.97 21.8 25.97 24 25.97Z" id="f51wqRW0CG"></path><path d="M13.02 3.26C11.21 3.26 9.54 3.7 8.01 4.59C6.48 5.49 5.27 6.7 4.38 8.22C3.49 9.75 3.04 11.42 3.04 13.23C3.04 15.4 3.68 17.36 4.95 19.09C6.21 20.83 7.85 22.03 9.86 22.7C10.09 22.74 10.27 22.71 10.38 22.61C10.49 22.5 10.55 22.37 10.55 22.22C10.55 22.19 10.55 21.96 10.54 21.52C10.54 21.07 10.54 20.69 10.54 20.36C10.51 20.36 10.27 20.41 10.24 20.41C10.05 20.45 9.81 20.46 9.52 20.46C9.23 20.45 8.93 20.42 8.61 20.37C8.3 20.31 8.01 20.18 7.74 19.98C7.48 19.77 7.29 19.51 7.17 19.18C7.16 19.15 7.05 18.91 7.04 18.88C6.96 18.68 6.82 18.46 6.63 18.22C6.45 17.97 6.26 17.81 6.07 17.72C6.06 17.72 5.99 17.67 5.98 17.66C5.92 17.62 5.86 17.56 5.81 17.5C5.76 17.44 5.72 17.38 5.69 17.32C5.67 17.26 5.69 17.21 5.76 17.17C5.83 17.13 5.95 17.11 6.13 17.11C6.16 17.12 6.36 17.15 6.39 17.15C6.57 17.19 6.78 17.29 7.04 17.46C7.29 17.64 7.5 17.86 7.67 18.14C7.87 18.49 8.11 18.76 8.39 18.95C8.67 19.14 8.95 19.23 9.24 19.23C9.52 19.23 9.77 19.21 9.98 19.16C10.19 19.12 10.38 19.06 10.56 18.97C10.64 18.39 10.85 17.94 11.2 17.63C10.7 17.58 10.26 17.5 9.87 17.4C9.47 17.29 9.07 17.13 8.65 16.89C8.23 16.66 7.88 16.37 7.6 16.02C7.32 15.68 7.1 15.22 6.92 14.66C6.74 14.1 6.65 13.45 6.65 12.71C6.65 11.66 7 10.77 7.68 10.04C7.36 9.25 7.39 8.36 7.77 7.39C8.02 7.31 8.39 7.37 8.89 7.56C9.38 7.76 9.74 7.92 9.97 8.06C10.2 8.2 10.38 8.32 10.52 8.41C11.33 8.19 12.16 8.07 13.02 8.07C13.87 8.07 14.7 8.19 15.51 8.41C15.56 8.38 15.95 8.13 16 8.1C16.34 7.89 16.74 7.7 17.2 7.53C17.66 7.36 18.01 7.31 18.25 7.39C18.64 8.36 18.67 9.25 18.35 10.04C19.04 10.77 19.38 11.66 19.38 12.71C19.38 13.45 19.29 14.1 19.11 14.66C18.94 15.23 18.71 15.69 18.43 16.03C18.14 16.37 17.79 16.66 17.37 16.89C16.95 17.13 16.55 17.29 16.15 17.4C15.76 17.5 15.32 17.58 14.82 17.63C15.27 18.02 15.5 18.64 15.5 19.48C15.5 19.75 15.5 21.94 15.5 22.22C15.5 22.37 15.55 22.5 15.66 22.61C15.77 22.71 15.94 22.74 16.17 22.7C18.18 22.03 19.82 20.83 21.09 19.09C22.36 17.36 22.99 15.4 22.99 13.23C22.99 11.42 22.54 9.75 21.65 8.22C20.76 6.7 19.55 5.49 18.02 4.59C16.49 3.7 14.83 3.26 13.02 3.26Z" id="bqkj6t8L"></path><path d="M13.02 3.26C11.21 3.26 9.54 3.7 8.01 4.59C6.48 5.49 5.27 6.7 4.38 8.22C3.49 9.75 3.04 11.42 3.04 13.23C3.04 15.4 3.68 17.36 4.95 19.09C6.21 20.83 7.85 22.03 9.86 22.7C10.09 22.74 10.27 22.71 10.38 22.61C10.49 22.5 10.55 22.37 10.55 22.22C10.55 22.19 10.55 21.96 10.54 21.52C10.54 21.07 10.54 20.69 10.54 20.36C10.51 20.36 10.27 20.41 10.24 20.41C10.05 20.45 9.81 20.46 9.52 20.46C9.23 20.45 8.93 20.42 8.61 20.37C8.3 20.31 8.01 20.18 7.74 19.98C7.48 19.77 7.29 19.51 7.17 19.18C7.16 19.15 7.05 18.91 7.04 18.88C6.96 18.68 6.82 18.46 6.63 18.22C6.45 17.97 6.26 17.81 6.07 17.72C6.06 17.72 5.99 17.67 5.98 17.66C5.92 17.62 5.86 17.56 5.81 17.5C5.76 17.44 5.72 17.38 5.69 17.32C5.67 17.26 5.69 17.21 5.76 17.17C5.83 17.13 5.95 17.11 6.13 17.11C6.16 17.12 6.36 17.15 6.39 17.15C6.57 17.19 6.78 17.29 7.04 17.46C7.29 17.64 7.5 17.86 7.67 18.14C7.87 18.49 8.11 18.76 8.39 18.95C8.67 19.14 8.95 19.23 9.24 19.23C9.52 19.23 9.77 19.21 9.98 19.16C10.19 19.12 10.38 19.06 10.56 18.97C10.64 18.39 10.85 17.94 11.2 17.63C10.7 17.58 10.26 17.5 9.87 17.4C9.47 17.29 9.07 17.13 8.65 16.89C8.23 16.66 7.88 16.37 7.6 16.02C7.32 15.68 7.1 15.22 6.92 14.66C6.74 14.1 6.65 13.45 6.65 12.71C6.65 11.66 7 10.77 7.68 10.04C7.36 9.25 7.39 8.36 7.77 7.39C8.02 7.31 8.39 7.37 8.89 7.56C9.38 7.76 9.74 7.92 9.97 8.06C10.2 8.2 10.38 8.32 10.52 8.41C11.33 8.19 12.16 8.07 13.02 8.07C13.87 8.07 14.7 8.19 15.51 8.41C15.56 8.38 15.95 8.13 16 8.1C16.34 7.89 16.74 7.7 17.2 7.53C17.66 7.36 18.01 7.31 18.25 7.39C18.64 8.36 18.67 9.25 18.35 10.04C19.04 10.77 19.38 11.66 19.38 12.71C19.38 13.45 19.29 14.1 19.11 14.66C18.94 15.23 18.71 15.69 18.43 16.03C18.14 16.37 17.79 16.66 17.37 16.89C16.95 17.13 16.55 17.29 16.15 17.4C15.76 17.5 15.32 17.58 14.82 17.63C15.27 18.02 15.5 18.64 15.5 19.48C15.5 19.75 15.5 21.94 15.5 22.22C15.5 22.37 15.55 22.5 15.66 22.61C15.77 22.71 15.94 22.74 16.17 22.7C18.18 22.03 19.82 20.83 21.09 19.09C22.36 17.36 22.99 15.4 22.99 13.23C22.99 11.42 22.54 9.75 21.65 8.22C20.76 6.7 19.55 5.49 18.02 4.59C16.49 3.7 14.83 3.26 13.02 3.26Z" id="f39OWpL5U"></path></defs><g><g><g><use xlink:href="#bTQTDqXul" opacity="1" fill="#4a4a4a" fill-opacity="1"></use><g><use xlink:href="#bTQTDqXul" opacity="1" fill-opacity="0" stroke="#000000" stroke-width="1" stroke-opacity="0"></use></g></g><g><use xlink:href="#f51wqRW0CG" opacity="1" fill="#000000" fill-opacity="0"></use><g><use xlink:href="#f51wqRW0CG" opacity="1" fill-opacity="0" stroke="#000000" stroke-width="1" stroke-opacity="0"></use></g></g><g><use xlink:href="#bqkj6t8L" opacity="1" fill="#ffffff" fill-opacity="1"></use><g><use xlink:href="#bqkj6t8L" opacity="1" fill-opacity="0" stroke="#000000" stroke-width="1" stroke-opacity="0"></use></g></g><g><use xlink:href="#f39OWpL5U" opacity="1" fill="#000000" fill-opacity="0"></use><g><use xlink:href="#f39OWpL5U" opacity="1" fill-opacity="0" stroke="#000000" stroke-width="1" stroke-opacity="0"></use></g></g></g></g></svg>