<?xml version="1.0" encoding="UTF-8" standalone="no"?>
<!DOCTYPE svg PUBLIC "-//W3C//DTD SVG 1.1//EN" "http://www.w3.org/Graphics/SVG/1.1/DTD/svg11.dtd">
<svg version="1.1" xmlns="http://www.w3.org/2000/svg" xmlns:xlink="http://www.w3.org/1999/xlink" preserveAspectRatio="xMidYMid meet" viewBox="0 0 26 26" width="26" height="26"><defs><path d="M0 1.87C0 4.1 0 21.88 0 24.11C0 25.14 0.84 25.98 1.87 25.98C4.09 25.98 21.89 25.98 24.11 25.98C25.14 25.98 25.98 25.14 25.98 24.11C25.98 21.88 25.98 4.1 25.98 1.87C25.98 0.84 25.14 0 24.11 0C24.11 0 24.11 0 24.11 0C10.77 0 3.35 0 1.87 0C0.84 0 0 0.84 0 1.87ZM17.88 20.06C17.4 20.24 16.86 20.37 16.07 20.4C15.27 20.44 15.02 20.45 12.99 20.45C10.96 20.45 10.71 20.44 9.91 20.4C9.12 20.37 8.58 20.24 8.1 20.06C7.61 19.87 7.16 19.58 6.78 19.2C6.4 18.82 6.11 18.37 5.92 17.88C5.74 17.4 5.61 16.86 5.58 16.07C5.54 15.27 5.53 15.02 5.53 12.99C5.53 10.96 5.54 10.71 5.58 9.91C5.61 9.12 5.74 8.58 5.92 8.1C6.11 7.61 6.4 7.16 6.78 6.78C7.16 6.4 7.61 6.11 8.1 5.92C8.58 5.74 9.12 5.61 9.91 5.58C10.71 5.54 10.96 5.53 12.99 5.53C15.02 5.53 15.27 5.54 16.07 5.58C16.86 5.61 17.4 5.74 17.88 5.92C18.37 6.11 18.82 6.4 19.2 6.78C19.58 7.16 19.87 7.61 20.06 8.1C20.24 8.58 20.37 9.12 20.4 9.91C20.44 10.71 20.45 10.96 20.45 12.99C20.45 15.02 20.44 15.27 20.4 16.07C20.37 16.86 20.24 17.4 20.06 17.88C19.67 18.88 18.88 19.67 17.88 20.06Z" id="d1HqNiTPhX"></path><path d="M0 1.87C0 4.1 0 21.88 0 24.11C0 25.14 0.84 25.98 1.87 25.98C4.09 25.98 21.89 25.98 24.11 25.98C25.14 25.98 25.98 25.14 25.98 24.11C25.98 21.88 25.98 4.1 25.98 1.87C25.98 0.84 25.14 0 24.11 0C24.11 0 24.11 0 24.11 0C10.77 0 3.35 0 1.87 0C0.84 0 0 0.84 0 1.87ZM17.88 20.06C17.4 20.24 16.86 20.37 16.07 20.4C15.27 20.44 15.02 20.45 12.99 20.45C10.96 20.45 10.71 20.44 9.91 20.4C9.12 20.37 8.58 20.24 8.1 20.06C7.61 19.87 7.16 19.58 6.78 19.2C6.4 18.82 6.11 18.37 5.92 17.88C5.74 17.4 5.61 16.86 5.58 16.07C5.54 15.27 5.53 15.02 5.53 12.99C5.53 10.96 5.54 10.71 5.58 9.91C5.61 9.12 5.74 8.58 5.92 8.1C6.11 7.61 6.4 7.16 6.78 6.78C7.16 6.4 7.61 6.11 8.1 5.92C8.58 5.74 9.12 5.61 9.91 5.58C10.71 5.54 10.96 5.53 12.99 5.53C15.02 5.53 15.27 5.54 16.07 5.58C16.86 5.61 17.4 5.74 17.88 5.92C18.37 6.11 18.82 6.4 19.2 6.78C19.58 7.16 19.87 7.61 20.06 8.1C20.24 8.58 20.37 9.12 20.4 9.91C20.44 10.71 20.45 10.96 20.45 12.99C20.45 15.02 20.44 15.27 20.4 16.07C20.37 16.86 20.24 17.4 20.06 17.88C19.67 18.88 18.88 19.67 17.88 20.06Z" id="agK70Ozgc"></path><path d="M17.39 7.18C17.13 7.07 16.73 6.95 16 6.92C15.22 6.88 14.98 6.88 12.99 6.88C11 6.88 10.76 6.88 9.98 6.92C9.25 6.95 8.85 7.07 8.59 7.18C8.27 7.29 7.97 7.49 7.73 7.73C7.49 7.97 7.29 8.27 7.18 8.59C7.07 8.85 6.95 9.25 6.92 9.98C6.88 10.76 6.87 11 6.87 12.99C6.87 14.98 6.88 15.22 6.92 16C6.95 16.73 7.07 17.13 7.18 17.39C7.29 17.71 7.49 18.01 7.73 18.25C7.97 18.49 8.27 18.69 8.59 18.81C8.85 18.91 9.25 19.03 9.98 19.06C10.76 19.1 11 19.11 12.99 19.11C14.98 19.11 15.22 19.1 16 19.06C16.73 19.03 17.13 18.91 17.39 18.81C18.04 18.55 18.55 18.04 18.8 17.39C18.91 17.13 19.03 16.73 19.06 16C19.1 15.22 19.11 14.98 19.11 12.99C19.11 11 19.1 10.76 19.06 9.98C19.03 9.25 18.91 8.85 18.8 8.59C18.69 8.27 18.49 7.97 18.25 7.73C18.01 7.49 17.71 7.29 17.39 7.18ZM12.99 9.16C15.11 9.16 16.82 10.87 16.82 12.99C16.82 15.11 15.11 16.82 12.99 16.82C10.87 16.82 9.16 15.11 9.16 12.99C9.16 10.87 10.87 9.16 12.99 9.16ZM16.97 8.11C17.47 8.11 17.87 8.51 17.87 9.01C17.87 9.5 17.47 9.9 16.97 9.9C16.48 9.9 16.08 9.5 16.08 9.01C16.08 8.51 16.48 8.11 16.97 8.11Z" id="f2zgsjXaSx"></path><path d="M17.39 7.18C17.13 7.07 16.73 6.95 16 6.92C15.22 6.88 14.98 6.88 12.99 6.88C11 6.88 10.76 6.88 9.98 6.92C9.25 6.95 8.85 7.07 8.59 7.18C8.27 7.29 7.97 7.49 7.73 7.73C7.49 7.97 7.29 8.27 7.18 8.59C7.07 8.85 6.95 9.25 6.92 9.98C6.88 10.76 6.87 11 6.87 12.99C6.87 14.98 6.88 15.22 6.92 16C6.95 16.73 7.07 17.13 7.18 17.39C7.29 17.71 7.49 18.01 7.73 18.25C7.97 18.49 8.27 18.69 8.59 18.81C8.85 18.91 9.25 19.03 9.98 19.06C10.76 19.1 11 19.11 12.99 19.11C14.98 19.11 15.22 19.1 16 19.06C16.73 19.03 17.13 18.91 17.39 18.81C18.04 18.55 18.55 18.04 18.8 17.39C18.91 17.13 19.03 16.73 19.06 16C19.1 15.22 19.11 14.98 19.11 12.99C19.11 11 19.1 10.76 19.06 9.98C19.03 9.25 18.91 8.85 18.8 8.59C18.69 8.27 18.49 7.97 18.25 7.73C18.01 7.49 17.71 7.29 17.39 7.18ZM12.99 9.16C15.11 9.16 16.82 10.87 16.82 12.99C16.82 15.11 15.11 16.82 12.99 16.82C10.87 16.82 9.16 15.11 9.16 12.99C9.16 10.87 10.87 9.16 12.99 9.16ZM16.97 8.11C17.47 8.11 17.87 8.51 17.87 9.01C17.87 9.5 17.47 9.9 16.97 9.9C16.48 9.9 16.08 9.5 16.08 9.01C16.08 8.51 16.48 8.11 16.97 8.11Z" id="c6Fb6Z7KZ1"></path><path d="M10.5 12.99C10.5 11.62 11.62 10.5 12.99 10.5C14.36 10.5 15.48 11.62 15.48 12.99C15.48 14.36 14.36 15.48 12.99 15.48C11.62 15.48 10.5 14.36 10.5 12.99Z" id="a5EinQgx"></path><path d="M10.5 12.99C10.5 11.62 11.62 10.5 12.99 10.5C14.36 10.5 15.48 11.62 15.48 12.99C15.48 14.36 14.36 15.48 12.99 15.48C11.62 15.48 10.5 14.36 10.5 12.99Z" id="gZ8wCuZUb"></path></defs><g><g><g><use xlink:href="#d1HqNiTPhX" opacity="1" fill="#4a4a4a" fill-opacity="1"></use><g><use xlink:href="#d1HqNiTPhX" opacity="1" fill-opacity="0" stroke="#000000" stroke-width="1" stroke-opacity="0"></use></g></g><g><use xlink:href="#agK70Ozgc" opacity="1" fill="#000000" fill-opacity="0"></use><g><use xlink:href="#agK70Ozgc" opacity="1" fill-opacity="0" stroke="#000000" stroke-width="1" stroke-opacity="0"></use></g></g><g><use xlink:href="#f2zgsjXaSx" opacity="1" fill="#4a4a4a" fill-opacity="1"></use><g><use xlink:href="#f2zgsjXaSx" opacity="1" fill-opacity="0" stroke="#000000" stroke-width="1" stroke-opacity="0"></use></g></g><g><use xlink:href="#c6Fb6Z7KZ1" opacity="1" fill="#000000" fill-opacity="0"></use><g><use xlink:href="#c6Fb6Z7KZ1" opacity="1" fill-opacity="0" stroke="#000000" stroke-width="1" stroke-opacity="0"></use></g></g><g><use xlink:href="#a5EinQgx" opacity="1" fill="#4a4a4a" fill-opacity="1"></use><g><use xlink:href="#a5EinQgx" opacity="1" fill-opacity="0" stroke="#000000" stroke-width="1" stroke-opacity="0"></use></g></g><g><use xlink:href="#gZ8wCuZUb" opacity="1" fill="#000000" fill-opacity="0"></use><g><use xlink:href="#gZ8wCuZUb" opacity="1" fill-opacity="0" stroke="#000000" stroke-width="1" stroke-opacity="0"></use></g></g></g></g></svg>