<?xml version="1.0" encoding="UTF-8" standalone="no"?>
<!DOCTYPE svg PUBLIC "-//W3C//DTD SVG 1.1//EN" "http://www.w3.org/Graphics/SVG/1.1/DTD/svg11.dtd">
<svg version="1.1" xmlns="http://www.w3.org/2000/svg" xmlns:xlink="http://www.w3.org/1999/xlink" preserveAspectRatio="xMidYMid meet" viewBox="0 0 26 26" width="26" height="26"><defs><path d="M23.99 0C25.09 0 25.99 0.9 25.99 2C25.99 4.2 25.99 21.79 25.99 23.98C25.99 25.09 25.09 25.98 23.99 25.98C21.79 25.98 4.2 25.98 2 25.98C0.9 25.98 0 25.09 0 23.98C0 22.52 0 15.19 0 2C0.6 0.67 1.27 0 2 0C4.2 0 21.79 0 23.99 0ZM22.55 7.35C22.55 7.35 21.42 7.82 20.32 7.93C20.32 7.93 20.32 7.93 20.32 7.93C20.32 7.93 20.32 7.93 20.32 7.93C20.43 7.86 21.84 6.89 22.03 5.75C22.03 5.75 21.24 6.17 20.13 6.54C19.94 6.6 19.75 6.66 19.55 6.72C18.84 5.95 17.82 5.48 16.69 5.48C14.52 5.48 12.76 7.23 12.76 9.4C12.76 9.7 12.8 10 12.86 10.29C12.56 10.28 7.95 10.02 4.81 6.22C4.81 6.22 2.93 8.78 5.93 11.41C5.93 11.41 5.01 11.37 4.23 10.91C4.23 10.91 3.94 14.01 7.33 14.8C7.33 14.8 6.66 15.05 5.6 14.87C5.6 14.87 6.2 17.38 9.21 17.61C9.21 17.61 6.83 19.77 3.45 19.26C5.18 20.36 7.23 20.99 9.43 20.99C15.6 20.99 20.61 15.98 20.61 9.81C20.61 9.65 20.61 9.5 20.6 9.35C20.83 9.17 22.21 8.06 22.55 7.35Z" id="a1d7Mwh7A"></path><path d="M23.99 0C25.09 0 25.99 0.9 25.99 2C25.99 4.2 25.99 21.79 25.99 23.98C25.99 25.09 25.09 25.98 23.99 25.98C21.79 25.98 4.2 25.98 2 25.98C0.9 25.98 0 25.09 0 23.98C0 22.52 0 15.19 0 2C0.6 0.67 1.27 0 2 0C4.2 0 21.79 0 23.99 0ZM22.55 7.35C22.55 7.35 21.42 7.82 20.32 7.93C20.32 7.93 20.32 7.93 20.32 7.93C20.32 7.93 20.32 7.93 20.32 7.93C20.43 7.86 21.84 6.89 22.03 5.75C22.03 5.75 21.24 6.17 20.13 6.54C19.94 6.6 19.75 6.66 19.55 6.72C18.84 5.95 17.82 5.48 16.69 5.48C14.52 5.48 12.76 7.23 12.76 9.4C12.76 9.7 12.8 10 12.86 10.29C12.56 10.28 7.95 10.02 4.81 6.22C4.81 6.22 2.93 8.78 5.93 11.41C5.93 11.41 5.01 11.37 4.23 10.91C4.23 10.91 3.94 14.01 7.33 14.8C7.33 14.8 6.66 15.05 5.6 14.87C5.6 14.87 6.2 17.38 9.21 17.61C9.21 17.61 6.83 19.77 3.45 19.26C5.18 20.36 7.23 20.99 9.43 20.99C15.6 20.99 20.61 15.98 20.61 9.81C20.61 9.65 20.61 9.5 20.6 9.35C20.83 9.17 22.21 8.06 22.55 7.35Z" id="b2F64QXrJm"></path></defs><g><g><g><use xlink:href="#a1d7Mwh7A" opacity="1" fill="#4a4a4a" fill-opacity="1"></use><g><use xlink:href="#a1d7Mwh7A" opacity="1" fill-opacity="0" stroke="#000000" stroke-width="1" stroke-opacity="0"></use></g></g><g><use xlink:href="#b2F64QXrJm" opacity="1" fill="#000000" fill-opacity="0"></use><g><use xlink:href="#b2F64QXrJm" opacity="1" fill-opacity="0" stroke="#000000" stroke-width="1" stroke-opacity="0"></use></g></g></g></g></svg>